<svg xmlns="http://www.w3.org/2000/svg" viewBox="0 0 24 24">
  <path fill="#F3F4F6" d="M6 2h8l4 4v16a2 2 0 0 1-2 2H6a2 2 0 0 1-2-2V4a2 2 0 0 1 2-2z"/>
  <path fill="#E5E7EB" d="M14 2v4h4z"/>
  <rect x="6.2" y="12.2" width="11.6" height="7" rx="1.5" fill="#EF4444"/>
  <path fill="#FFFFFF" d="M7.4 17.6v-3.1h1.3c.8 0 1.3.5 1.3 1.1s-.5 1.1-1.3 1.1h-.4v.9H7.4zm.9-2.4v.8h.4c.3 0 .5-.2.5-.4s-.2-.4-.5-.4h-.4zm2.4 2.4v-3.1h1.3c1 0 1.7.6 1.7 1.6s-.7 1.6-1.7 1.6h-1.3zm.9-2.4v1.7h.4c.5 0 .8-.3.8-.9s-.3-.9-.8-.9h-.4zm2.8 2.4v-3.1h2.2v.7h-1.3v.6h1.2v.7h-1.2v1.1h-.9z"/>
</svg>
